<svg viewBox="0 0 340.16 340.16" id="icon-bmw-logo-white" xmlns="http://www.w3.org/2000/svg"><g fill="#fff"><path d="M170.08 0C76.15 0 0 76.15 0 170.08s76.15 170.08 170.08 170.08 170.08-76.15 170.08-170.08S264.01 0 170.08 0zM329.1 170.08c0 87.82-71.19 159.02-159.02 159.02S11.06 257.9 11.06 170.08 82.26 11.06 170.08 11.06 329.1 82.26 329.1 170.08z"></path><path d="M252.51 97.92c2.31 2.48 5.64 6.48 7.51 8.91l34.44-21.86a229.09 229.09 0 0 0-6.51-8.08l-21.81 14.42-1.49 1.28 1.11-1.62 9.63-19.22-6.81-6.81-19.23 9.63-1.62 1.11 1.29-1.49 14.43-21.8c-2.54-2.16-4.98-4.14-8.09-6.54L233.5 80.26c2.77 2.13 6.42 5.26 8.75 7.39l20.58-10.68 1.32-.97-.97 1.32zm-78.15-43.61l9.41-21.08.6-1.87-.17 1.95.99 28.17c3.3.31 6.71.77 10.07 1.33l-1.53-41.72c-4.7-.52-9.38-.89-14.06-1.09l-9.27 23.01-.33 1.71-.33-1.71L160.48 20c-4.68.2-9.36.57-14.06 1.09l-1.53 41.72c3.36-.56 6.77-1.01 10.07-1.33l.99-28.17-.17-1.95.6 1.87 9.41 21.08zM98.25 87.56c5.44-5.73 8.52-12.35 3.08-18.67-2.96-3.43-7.93-4.18-12.05-2.49l-.41.16.13-.36c.61-1.63 1-6.83-3.43-10.42-2.16-1.75-4.87-2.4-7.61-2.12-5.11.52-9.04 4.01-19.74 15.94-3.23 3.6-7.93 9.28-10.75 12.96l29.39 27.88c9.74-10.78 13.71-14.79 21.39-22.88zM59.9 80.74c5.92-7.24 12.21-13.81 15.06-16.41.9-.82 1.88-1.64 3.07-1.96 1.93-.53 3.92.84 4.37 2.82.45 1.99-.8 3.88-2.19 5.44-3.13 3.53-14.61 15.54-14.61 15.54zm11.51 10.92s11.18-11.82 14.83-15.6c1.45-1.5 2.38-2.41 3.38-2.9 1.29-.63 2.7-.76 3.96.08 1.24.83 1.81 2.26 1.5 3.68-.37 1.69-1.75 3.3-2.89 4.53-1.54 1.65-14.8 15.84-14.82 15.86z"></path><path d="M270.94 170.08H170.08V69.22c55.74 0 100.86 45.12 100.86 100.86zm-100.86 0v100.86c-55.74 0-100.86-45.12-100.86-100.86z"></path></g><path fill="#0066b1" d="M170.08 69.22v100.86H69.22c0-55.74 45.12-100.86 100.86-100.86zm100.86 100.86c0 55.74-45.12 100.86-100.86 100.86V170.08z"></path></svg>
